<?xml version="1.0" encoding="utf-8"?>
<!-- Generator: Adobe Illustrator 16.0.0, SVG Export Plug-In . SVG Version: 6.00 Build 0)  -->
<!DOCTYPE svg PUBLIC "-//W3C//DTD SVG 1.1//EN" "http://www.w3.org/Graphics/SVG/1.1/DTD/svg11.dtd">
<svg version="1.1" id="Layer_1" xmlns="http://www.w3.org/2000/svg" xmlns:xlink="http://www.w3.org/1999/xlink" x="0px" y="0px"
	 width="173.184px" height="58.25px" viewBox="0 0 173.184 58.25" enable-background="new 0 0 173.184 58.25" xml:space="preserve">
<rect x="-10.801" y="154.625" fill="#FFB15C" width="49.528" height="13.516"/>
<rect x="-76.883" y="12.334" fill="#F8AE5D" width="47.632" height="47"/>
<text transform="matrix(1 0 0 1 79.4602 -476.541)" fill="#231F20" font-family="'CooperBlackStd'" font-size="24">onthSub</text>
<g>
	<text transform="matrix(1 0 0 1 38.7297 -476.541)" fill="#231F20" font-family="'CooperBlackStd'" font-size="24">M</text>
	<g>
		<g>
			<g>
				
					<line fill="none" stroke="#231F20" stroke-width="5" stroke-linecap="round" stroke-miterlimit="10" x1="35.376" y1="-521.559" x2="35.376" y2="-511.559"/>
			</g>
			<g>
				
					<line fill="none" stroke="#231F20" stroke-width="5" stroke-linecap="round" stroke-miterlimit="10" x1="64.377" y1="-521.559" x2="64.377" y2="-511.559"/>
			</g>
		</g>
		
			<line fill="none" stroke="#231F20" stroke-width="4" stroke-miterlimit="10" x1="24.877" y1="-503.042" x2="74.877" y2="-503.042"/>
		<path fill="none" stroke="#231F20" stroke-width="4" stroke-miterlimit="10" d="M74.877-470.046c0,1.926-1.563,3.488-3.487,3.488
			H28.365c-1.93,0-3.487-1.562-3.487-3.488v-43.024c0-1.926,1.563-3.488,3.487-3.488h43.021c1.926,0,3.487,1.562,3.487,3.488
			L74.877-470.046L74.877-470.046z"/>
	</g>
</g>
<text transform="matrix(1 0 0 1 35.4543 -403.3574)" fill="#231F20" font-family="'BrushScriptStd'" font-size="24">M</text>
<text transform="matrix(1 0 0 1 81.4543 -403.3574)" fill="#231F20" font-family="'BrushScriptStd'" font-size="24">onthSub</text>
<g>
	<g>
		<g>
			
				<line fill="none" stroke="#231F20" stroke-width="3" stroke-linecap="round" stroke-miterlimit="10" x1="35.376" y1="-447.375" x2="35.376" y2="-437.375"/>
		</g>
		<g>
			
				<line fill="none" stroke="#231F20" stroke-width="3" stroke-linecap="round" stroke-miterlimit="10" x1="64.377" y1="-447.375" x2="64.377" y2="-437.375"/>
		</g>
	</g>
	
		<line fill="none" stroke="#231F20" stroke-width="3" stroke-miterlimit="10" x1="24.877" y1="-428.859" x2="74.877" y2="-428.859"/>
	<path fill="none" stroke="#231F20" stroke-width="3" stroke-miterlimit="10" d="M74.877-395.863c0,1.926-1.563,3.488-3.487,3.488
		H28.365c-1.93,0-3.487-1.562-3.487-3.488v-43.024c0-1.926,1.563-3.488,3.487-3.488h43.021c1.926,0,3.487,1.562,3.487,3.488
		L74.877-395.863L74.877-395.863z"/>
</g>
<text transform="matrix(1 0 0 1 -0.2834 126.6426)" fill="#231F20" font-family="'BrushScriptStd'" font-size="24">M</text>
<text transform="matrix(1 0 0 1 44.717 126.6426)" fill="#231F20" font-family="'BrushScriptStd'" font-size="36">onthSub</text>
<g>
	<g>
		<g>
			
				<line fill="none" stroke="#231F20" stroke-width="3" stroke-linecap="round" stroke-miterlimit="10" x1="-0.363" y1="82.625" x2="-0.363" y2="92.625"/>
		</g>
		<g>
			
				<line fill="none" stroke="#231F20" stroke-width="3" stroke-linecap="round" stroke-miterlimit="10" x1="28.638" y1="82.625" x2="28.638" y2="92.625"/>
		</g>
	</g>
	<line fill="none" stroke="#231F20" stroke-width="3" stroke-miterlimit="10" x1="-10.862" y1="101.141" x2="39.138" y2="101.141"/>
	<path fill="none" stroke="#231F20" stroke-width="3" stroke-miterlimit="10" d="M39.138,134.137c0,1.926-1.563,3.488-3.487,3.488
		H-7.373c-1.927,0-3.487-1.563-3.487-3.488V91.113c0-1.926,1.563-3.488,3.487-3.488H35.65c1.929,0,3.487,1.563,3.487,3.488
		L39.138,134.137L39.138,134.137z"/>
</g>
<g enable-background="new    ">
	<path d="M12.378,186.781c2.632-3.442,3.584-4.982,4.536-6.831c0.476-0.896,0.361-1.203,0.056-1.203
		c-0.336,0-0.672,0.362-0.868,0.588l-6.72,7.278l-4.2,5.656c-0.476,0.646-1.176,1.709-2.072,1.709c-1.176,0-1.733-2.213-2.044-3.08
		l5.854-7.395c2.938-5.268,2.436-5.822,1.96-5.822c-0.227,0-0.646,0.225-0.868,0.336c-8.624,4.03-7.28,4.088-8.708,4.088
		c-0.448,0-0.812-0.363-0.672-1.035c0.28-1.512,0.504-3.053,0.728-3.305c0.252-0.336,0.084-0.279,2.576-2.043
		c0.143-0.113,0.504-0.395,0.7-0.395c0.14,0,0.336,0.109,0.336,0.277s-0.392,0.672-1.484,1.623l0.059,0.06l3.164-1.456
		c0.336-0.143,4.284-2.02,5.292-1.96c0.672,0.024,0.784,0.42,1.063,0.896l0.672,1.176c0.196,0.365,0.337,0.646,0.337,1.063
		c0,0.925-1.429,3.837-1.734,4.872l0.056,0.057l4.452-4.313c1.036-0.979,3.416-3.08,4.564-3.107
		c0.613-0.027,2.044,0.479,2.044,1.932c0,2.072-3.024,6.219-4.175,7.98l0.059,0.057c3.441-2.969,6.664-6.021,10.332-8.932
		c0.362-0.31,0.924-0.896,1.428-0.896c0.756,0,1.932,1.819,1.932,2.407c0,0.562-0.865,1.539-1.202,1.959l-4.342,5.293
		c-1.287,1.568-3.22,4.229-3.22,6.354c0,0.562,0.309,1.372,0.98,1.372c0.781,0,2.968-1.261,6.748-4.93l0.109,1.064
		c-0.672,1.932-6.689,6.69-9.1,6.69c-1.851,0-2.464-1.767-2.464-3.39c0-3.358,3.556-7.562,5.516-10.106l-0.056-0.058
		c-4.763,4.031-6.3,5.291-10.696,10.863c-0.42,0.531-1.764,2.129-2.464,2.129c-1.092,0-1.484-2.018-1.484-2.828
		c0-0.785,0.672-1.625,1.12-2.213L12.378,186.781z"/>
</g>
<g enable-background="new    ">
	<path d="M59.402,187.243c-1.617,2.052-3.201,2.916-5.831,2.916c-1.512,1.548-3.273,2.698-5.543,2.698
		c-1.872,0-3.6-1.871-3.741-5.146c-0.072-2.699,1.26-4.499,3.273-6.047c1.944-1.584,4.535-2.557,6.731-2.664
		c0.792-0.036,1.979,0.324,1.979,1.296c0,0.54-0.432,0.757-0.828,0.972c1.08,0.289,1.296,1.045,1.296,2.125
		c0,1.584-0.72,2.844-1.401,4.248c1.584,0.287,2.592-1.08,3.708-1.908L59.402,187.243z M48.423,185.553
		c-0.792,0.791-1.479,2.194-1.479,3.311c0,1.047,0.687,1.367,1.583,1.367c1.188,0,1.944-0.684,2.772-1.438
		c-0.252-0.576-0.432-1.044-0.432-1.654c0-1.871,1.689-4.141,1.548-4.213C51.195,183.645,49.503,184.508,48.423,185.553z"/>
	<path d="M75.818,185.516l0.287,1.584c-1.904,1.691-5.612,6.119-8.242,6.119c-1.365,0-2.016-1.152-2.016-2.375
		c0-2.16,1.944-4.535,3.096-6.191l-0.069-0.069c-2.088,1.547-3.927,3.419-5.543,5.507c-0.54,0.686-1.872,2.447-2.847,2.447
		c-1.583,0-1.979-2.27-2.016-3.491c-0.108-2.481,2.16-6.116,4.248-7.883c0.468-0.396,0.792-0.435,1.404-0.435
		c2.157,0.072,1.979,0.576,1.979,0.791c0,1.404-4.535,5.041-4.535,5.903c0,0.218,0.183,0.396,0.396,0.396
		c0.252,0,0.576-0.321,0.72-0.504c2.88-3.672,9.503-8.1,10.547-8.1c0.146,0,0.359,0.182,0.576,0.686
		c0.215,0.539,0.432,1.188,0.539,1.943c0,1.403-4.427,4.139-4.427,6.622c0,0.324,0.288,0.647,0.646,0.647
		c0.864,0,2.447-1.26,3.099-1.799L75.818,185.516z"/>
	<path d="M88.021,177.633c-1.688,3.42-1.979,4.752-5.938,4.499c-1.227,1.584-3.276,4.535-3.276,6.695c0,0.792,0.252,1.26,1.08,1.26
		c1.152,0,2.448-1.08,6.191-3.743l0.18,1.584c-2.123,1.943-6.011,5.795-9.07,5.795c-1.401,0-2.268-0.972-2.268-2.412
		c0-1.188,0.468-2.556,0.936-3.6l-0.069-0.07l-1.836,1.475l-0.396-1.365c2.16-1.654,4.14-3.491,5.472-5.762
		c-2.192,0-1.512-0.145-3.42,0.146L76,181.486c1.94-3.168,2.229-3.744,6.083-3.889c1.079-1.478,1.872-3.168,3.96-3.168
		c0.467,0,1.148,0.106,1.148,0.684c0,0.648-1.044,1.836-1.4,2.341L88.021,177.633z"/>
	<path d="M88.31,188.107c1.767-1.404,8.315-7.164,10.295-7.164c0.864,0,1.729,0.9,1.729,1.729c0,0.684-1.439,2.268-1.872,2.771
		c-2.231,2.699-2.124,2.808-2.124,3.168c0,0.468,0.36,0.756,0.792,0.756c1.188,0,3.813-1.944,4.856-2.629l0.184,1.477
		c-1.656,1.26-6.012,4.788-7.992,4.788c-1.079,0-1.655-0.937-1.655-1.907c0-2.269,2.483-5.004,3.78-6.695l-0.072-0.07
		c-6.153,4.212-7.955,8.025-9.104,8.025c-1.263,0-1.439-2.809-1.439-3.637c0-2.482,0.938-4.211,2.195-6.263
		c4.248-7.021,11.41-13.317,12.635-13.317c0.576,0,1.548,0.252,1.548,0.971c0,2.447-11.443,14.326-13.751,16.597v1.401H88.31
		L88.31,188.107z"/>
	<path d="M120.384,180.332c3.636,0.863,5.327,2.771,5.327,4.535c0,7.162-12.563,8.314-17.745,8.314c-1.404,0-5.796,0-5.796-2.088
		c0-0.758,1.26-2.664,1.836-3.203c0.433-0.359,2.556-1.043,3.096-1.043c0.183,0,0.288,0.032,0.288,0.252
		c0,0.356-0.36,0.539-0.612,0.684c-0.216,0.145-0.396,0.324-0.609,0.539v0.072c12.852,0.469,16.379-3.24,16.379-3.814
		c0-1.836-9.971-3.275-11.699-3.564c-1.799-0.287-3.672-0.863-3.672-3.021c0-1.188,0.576-3.813,1.152-4.787
		c1.112-1.836,7.631-5.256,15.514-5.256c1.512,0,3.021,0.181,4.536,0.504c0.827,0.183,0.936,0.47,0.936,1.188
		c0,2.662-0.896,3.273-3.021,4.104c-1.548,0.574-1.836,0.756-3.239,1.766c-0.252,0.145-0.612,0.358-0.9,0.358
		c-0.356,0-0.573-0.183-0.573-0.54c0-0.07,0.684-1.188,2.628-2.521l-0.071-0.069c-9.287,0.321-13.283,3.671-13.318,4.497
		C110.81,177.74,110.341,177.992,120.384,180.332z"/>
	<path d="M137.809,183.066c0.756-0.686,4.284-4.104,5.187-4.104c0.288,0,0.684,0.106,0.824,1.979
		c0.072,0.863-0.896,1.689-1.475,2.195c-1.152,1.043-3.708,3.887-3.708,5.508c0,0.574,0.323,0.791,0.899,0.791
		c1.365,0,4.464-2.521,5.543-3.383l0.217,1.547c-1.836,1.766-5.651,5.902-8.314,5.902c-1.332,0-2.125-1.115-2.125-2.376
		c0-1.08,0.396-2.088,0.756-3.022l-0.068-0.07c-1.403,1.224-3.815,4.464-5.796,4.464c-1.767,0-2.734-2.019-2.734-3.563
		c0-3.49,2.699-7.09,5.002-8.604c0.504-0.324,0.974-0.396,1.584-0.396c0.504,0,2.34-0.324,2.196,0.756
		c-0.072,0.574-1.044,1.582-1.44,1.906c-1.113,1.26-1.331,1.584-2.731,2.592c-1.117,0.793-1.98,1.584-1.98,3.099
		c0,0.18,0.036,0.54,0.288,0.54c0.647,0,2.628-1.047,4.319-2.559L137.809,183.066z"/>
	<path d="M147.638,185.84c-0.646,2.268,0.215,4.139,1.583,3.959c1.151-0.18,1.8-1.15,2.412-1.871
		c-0.288-0.469-0.505-0.828-0.505-1.404c0-2.088,2.881-5.612,5.004-5.612c0.864,0,1.08,0.897,1.08,1.584
		c0,1.512-1.115,3.167-1.729,4.499c1.479,0.285,2.664-0.506,3.816-1.332l0.359,1.188c-1.619,1.69-3.455,2.27-5.762,2.305
		c-1.548,1.619-4.064,3.813-6.44,3.813c-2.34,0-2.663-3.491-2.663-5.22c0-4.535,2.123-8.389,4.967-11.771
		c2.916-3.492,8.566-7.883,10.078-7.883c0.721,0,1.045,0.646,1.045,1.331c0,3.274-5.328,8.675-7.631,10.906L147.638,185.84z
		 M148.933,182.023l0.072,0.072c7.521-7.488,8.313-9.539,8.927-10.834l-0.071-0.072C154.296,174.213,151.057,177.85,148.933,182.023
		z"/>
</g>
<g>
	<g>
		<g>
			<path d="M-0.303,160.375c-1.381,0-2.5-1.119-2.5-2.5v-8.5c0-1.381,1.119-2.5,2.5-2.5c1.384,0,2.5,1.119,2.5,2.5v8.5
				C2.197,159.256,1.078,160.375-0.303,160.375z"/>
		</g>
		<g>
			<path d="M28.698,160.375c-1.384,0-2.5-1.119-2.5-2.5v-8.5c0-1.381,1.116-2.5,2.5-2.5c1.381,0,2.5,1.119,2.5,2.5v8.5
				C31.198,159.256,30.079,160.375,28.698,160.375z"/>
		</g>
	</g>
	<rect x="-10.802" y="165.553" width="50" height="3.178"/>
	<path d="M35.711,205.125H-7.314c-2.75,0-4.984-2.236-4.984-4.988v-43.023c0-2.75,2.234-4.985,4.984-4.985H35.71
		c2.75,0,4.984,2.235,4.984,4.985v43.023c0,1.331-0.518,2.584-1.46,3.527C38.294,204.605,37.042,205.125,35.711,205.125z
		 M-7.314,155.125c-1.096,0-1.984,0.893-1.984,1.988v43.023c0,1.096,0.892,1.985,1.984,1.985H35.71c1.096,0,1.984-0.894,1.984-1.985
		l-0.001-43.023c0-1.098-0.892-1.988-1.984-1.988H-7.314z"/>
</g>
<text transform="matrix(1 0 0 1 -2.6292 258.9746)" fill="#231F20" font-family="'BrushScriptStd'" font-size="28">M</text>
<g enable-background="new    ">
	<path fill="#231F20" d="M59.402,252.576c-1.617,2.052-3.201,2.916-5.831,2.916c-1.512,1.548-3.273,2.699-5.543,2.699
		c-1.872,0-3.6-1.873-3.741-5.147c-0.072-2.698,1.26-4.499,3.273-6.047c1.944-1.584,4.535-2.556,6.731-2.664
		c0.792-0.036,1.979,0.324,1.979,1.296c0,0.54-0.432,0.756-0.828,0.973c1.08,0.287,1.296,1.043,1.296,2.123
		c0,1.584-0.72,2.844-1.401,4.248c1.584,0.287,2.592-1.08,3.708-1.908L59.402,252.576z M48.423,250.885
		c-0.792,0.793-1.479,2.195-1.479,3.313c0,1.046,0.687,1.367,1.583,1.367c1.188,0,1.944-0.685,2.772-1.438
		c-0.252-0.576-0.432-1.044-0.432-1.652c0-1.873,1.689-4.143,1.548-4.215C51.195,248.977,49.503,249.841,48.423,250.885z"/>
	<path fill="#231F20" d="M75.818,250.85l0.287,1.584c-1.904,1.69-5.612,6.119-8.242,6.119c-1.365,0-2.016-1.152-2.016-2.377
		c0-2.16,1.944-4.535,3.096-6.191l-0.069-0.068c-2.088,1.547-3.927,3.419-5.543,5.507c-0.54,0.687-1.872,2.447-2.847,2.447
		c-1.583,0-1.979-2.271-2.016-3.491c-0.108-2.48,2.16-6.119,4.248-7.883c0.468-0.396,0.792-0.434,1.404-0.434
		c2.157,0.07,1.979,0.574,1.979,0.791c0,1.403-4.535,5.039-4.535,5.902c0,0.217,0.183,0.396,0.396,0.396
		c0.252,0,0.576-0.324,0.72-0.504c2.88-3.672,9.503-8.103,10.547-8.103c0.146,0,0.359,0.183,0.576,0.687
		c0.215,0.541,0.432,1.188,0.539,1.941c0,1.404-4.427,4.143-4.427,6.623c0,0.324,0.288,0.646,0.646,0.646
		c0.864,0,2.447-1.26,3.099-1.801L75.818,250.85z"/>
	<path fill="#231F20" d="M88.021,242.966c-1.688,3.419-1.979,4.751-5.938,4.499c-1.227,1.584-3.276,4.535-3.276,6.695
		c0,0.792,0.252,1.26,1.08,1.26c1.152,0,2.448-1.08,6.191-3.742l0.18,1.582c-2.123,1.944-6.011,5.797-9.07,5.797
		c-1.401,0-2.268-0.973-2.268-2.412c0-1.188,0.468-2.557,0.936-3.601l-0.069-0.071l-1.836,1.479l-0.396-1.368
		c2.16-1.653,4.14-3.491,5.472-5.759c-2.192,0-1.512-0.146-3.42,0.145l0.395-0.65c1.94-3.168,2.229-3.743,6.083-3.887
		c1.079-1.479,1.872-3.168,3.96-3.168c0.467,0,1.148,0.105,1.148,0.684c0,0.648-1.044,1.836-1.4,2.34L88.021,242.966z"/>
	<path fill="#231F20" d="M88.31,253.439c1.767-1.403,8.315-7.162,10.295-7.162c0.864,0,1.729,0.896,1.729,1.728
		c0,0.685-1.439,2.269-1.872,2.771c-2.231,2.701-2.124,2.811-2.124,3.168c0,0.471,0.36,0.759,0.792,0.759
		c1.188,0,3.813-1.944,4.856-2.63l0.184,1.478c-1.656,1.263-6.012,4.788-7.992,4.788c-1.079,0-1.655-0.938-1.655-1.906
		c0-2.27,2.483-5.005,3.78-6.695l-0.072-0.071c-6.153,4.212-7.955,8.026-9.104,8.026c-1.263,0-1.439-2.81-1.439-3.635
		c0-2.484,0.938-4.214,2.195-6.266c4.248-7.021,11.41-13.316,12.635-13.316c0.576,0,1.548,0.252,1.548,0.973
		c0,2.447-11.443,14.326-13.751,16.594v1.402H88.31V253.439z"/>
	<path fill="#231F20" d="M120.384,245.665c3.636,0.864,5.327,2.771,5.327,4.535c0,7.163-12.563,8.315-17.745,8.315
		c-1.404,0-5.796,0-5.796-2.091c0-0.756,1.26-2.661,1.836-3.2c0.433-0.361,2.556-1.045,3.096-1.045c0.183,0,0.288,0.033,0.288,0.252
		c0,0.357-0.36,0.541-0.612,0.684c-0.216,0.145-0.396,0.324-0.609,0.541v0.072c12.852,0.467,16.379-3.24,16.379-3.815
		c0-1.836-9.971-3.276-11.699-3.563c-1.799-0.287-3.672-0.863-3.672-3.021c0-1.188,0.576-3.813,1.152-4.787
		c1.112-1.836,7.631-5.256,15.514-5.256c1.512,0,3.021,0.181,4.536,0.504c0.827,0.182,0.936,0.469,0.936,1.188
		c0,2.664-0.896,3.274-3.021,4.104c-1.548,0.573-1.836,0.756-3.239,1.765c-0.252,0.145-0.612,0.359-0.9,0.359
		c-0.356,0-0.573-0.184-0.573-0.54c0-0.071,0.684-1.188,2.628-2.521l-0.071-0.072c-9.287,0.324-13.283,3.673-13.318,4.5
		C110.81,243.072,110.341,243.325,120.384,245.665z"/>
	<path fill="#231F20" d="M137.809,248.4c0.756-0.687,4.284-4.104,5.187-4.104c0.288,0,0.684,0.108,0.824,1.979
		c0.072,0.863-0.896,1.689-1.475,2.195c-1.152,1.045-3.708,3.889-3.708,5.508c0,0.576,0.323,0.793,0.899,0.793
		c1.365,0,4.464-2.521,5.543-3.385l0.217,1.549c-1.836,1.764-5.651,5.9-8.314,5.9c-1.332,0-2.125-1.113-2.125-2.376
		c0-1.08,0.396-2.088,0.756-3.021l-0.068-0.072c-1.403,1.224-3.815,4.464-5.796,4.464c-1.767,0-2.734-2.017-2.734-3.563
		c0-3.492,2.699-7.092,5.002-8.604c0.504-0.324,0.974-0.396,1.584-0.396c0.504,0,2.34-0.324,2.196,0.756
		c-0.072,0.576-1.044,1.584-1.44,1.908c-1.113,1.26-1.331,1.584-2.731,2.592c-1.117,0.791-1.98,1.584-1.98,3.098
		c0,0.18,0.036,0.54,0.288,0.54c0.647,0,2.628-1.046,4.319-2.558L137.809,248.4z"/>
	<path fill="#231F20" d="M147.638,251.173c-0.646,2.269,0.215,4.14,1.583,3.959c1.151-0.18,1.8-1.151,2.412-1.872
		c-0.288-0.468-0.505-0.826-0.505-1.402c0-2.088,2.881-5.613,5.004-5.613c0.864,0,1.08,0.896,1.08,1.584
		c0,1.512-1.115,3.167-1.729,4.499c1.479,0.286,2.664-0.507,3.816-1.332l0.359,1.188c-1.619,1.689-3.455,2.269-5.762,2.303
		c-1.548,1.619-4.064,3.814-6.44,3.814c-2.34,0-2.663-3.49-2.663-5.22c0-4.535,2.123-8.388,4.967-11.771
		c2.916-3.49,8.566-7.883,10.078-7.883c0.721,0,1.045,0.645,1.045,1.331c0,3.275-5.328,8.677-7.631,10.906L147.638,251.173z
		 M148.933,247.355l0.072,0.072c7.521-7.486,8.313-9.539,8.927-10.834l-0.071-0.072
		C154.296,239.546,151.057,243.182,148.933,247.355z"/>
</g>
<g>
	<g>
		
			<line fill="none" stroke="#231F20" stroke-width="5" stroke-linecap="round" stroke-miterlimit="10" x1="-0.303" y1="214.708" x2="-0.303" y2="223.208"/>
	</g>
	<g>
		
			<line fill="none" stroke="#231F20" stroke-width="5" stroke-linecap="round" stroke-miterlimit="10" x1="28.698" y1="214.708" x2="28.698" y2="223.208"/>
	</g>
</g>
<line fill="none" stroke="#231F20" stroke-width="3" stroke-miterlimit="10" x1="-10.802" y1="232.475" x2="39.198" y2="232.475"/>
<path fill="none" stroke="#231F20" stroke-width="3" stroke-miterlimit="10" d="M39.198,265.471c0,1.926-1.563,3.487-3.487,3.487
	H-7.314c-1.927,0-3.484-1.563-3.484-3.487v-43.023c0-1.926,1.563-3.486,3.484-3.486H35.71c1.926,0,3.484,1.563,3.484,3.486
	L39.198,265.471L39.198,265.471z"/>
<path fill="#F8AE5D" d="M48.011,4.667H44v4.667c0,1.657-1.343,3-3,3s-3-1.343-3-3V4.667H14.999v4.667c0,1.657-1.347,3-3,3
	c-1.657,0-3-1.343-3-3V4.667H4.987C2.237,4.667,0,6.904,0,9.655v8.53h52.999v-8.53C52.999,6.904,50.761,4.667,48.011,4.667z"/>
<path fill="#FFFFFF" d="M0,52.68c0,2.75,2.233,4.987,4.983,4.987H48.01c2.75,0,4.987-2.237,4.986-4.987V21.185H0V52.68z
	 M13.156,34.409c0.24-1.296,0.436-2.615,0.624-2.832c0.22-0.287,0.072-0.24,2.208-1.752c0.12-0.097,0.436-0.337,0.604-0.337
	c0.12,0,0.288,0.097,0.288,0.241c0,0.146-0.336,0.576-1.271,1.394l0.048,0.048l2.716-1.248c0.284-0.117,3.672-1.729,4.532-1.68
	c0.576,0.023,0.676,0.359,0.912,0.768l0.576,1.009c0.168,0.313,0.287,0.553,0.287,0.912c0,0.793-1.224,3.289-1.487,4.176
	l0.049,0.049l3.814-3.692c0.889-0.841,2.929-2.641,3.912-2.665c0.528-0.024,1.752,0.408,1.752,1.656
	c0,1.773-2.592,5.326-3.575,6.841l0.048,0.048c2.953-2.544,5.713-5.158,8.856-7.654c0.313-0.267,0.792-0.771,1.225-0.771
	c0.647,0,1.655,1.563,1.655,2.063c0,0.479-0.743,1.317-1.031,1.682l-3.721,4.535c-1.104,1.346-2.76,3.623-2.76,5.447
	c0,0.479,0.264,1.176,0.84,1.176c0.672,0,2.544-1.08,5.785-4.223l0.096,0.909c-0.575,1.655-5.736,5.736-7.801,5.736
	c-1.584,0-2.111-1.515-2.111-2.904c0-2.881,3.048-6.479,4.729-8.665l-0.052-0.048c-4.081,3.456-5.397,4.536-9.169,9.313
	c-0.356,0.455-1.512,1.824-2.108,1.824c-0.938,0-1.271-1.729-1.271-2.428c0-0.672,0.575-1.396,0.96-1.896l1.632-2.139
	c2.26-2.951,3.072-4.271,3.892-5.855c0.407-0.77,0.313-1.031,0.048-1.031c-0.288,0-0.576,0.313-0.744,0.504l-5.761,6.241
	l-3.604,4.853c-0.404,0.551-1.008,1.463-1.772,1.463c-1.008,0-1.488-1.896-1.752-2.643l5.016-6.338
	c2.521-4.516,2.089-4.992,1.682-4.992c-0.189,0-0.553,0.189-0.741,0.289c-7.396,3.455-6.24,3.504-7.467,3.504
	C13.348,35.298,13.036,34.984,13.156,34.409z"/>
<g>
	<path fill="#F8AE5D" d="M67.869,41.586c-1.08,1.367-2.14,1.943-3.893,1.943c-1.008,1.031-2.185,1.801-3.692,1.801
		c-1.248,0-2.4-1.248-2.496-3.434c-0.048-1.799,0.84-3,2.185-4.031c1.296-1.057,3.023-1.705,4.488-1.776
		c0.528-0.024,1.32,0.216,1.32,0.864c0,0.359-0.288,0.504-0.556,0.648c0.724,0.188,0.863,0.69,0.863,1.416
		c0,1.055-0.479,1.896-0.938,2.832c1.059,0.188,1.729-0.726,2.475-1.272L67.869,41.586z M60.548,40.457
		c-0.527,0.527-0.983,1.465-0.983,2.209c0,0.695,0.456,0.912,1.06,0.912c0.792,0,1.296-0.457,1.848-0.961
		c-0.168-0.385-0.287-0.695-0.287-1.104c0-1.248,1.128-2.766,1.031-2.813C62.396,39.186,61.269,39.762,60.548,40.457z"/>
	<path fill="#F8AE5D" d="M80.013,40.434l0.191,1.057c-1.271,1.132-3.744,4.08-5.496,4.08c-0.912,0-1.348-0.77-1.348-1.584
		c0-1.438,1.3-3.021,2.064-4.129l-0.049-0.049c-1.396,1.033-2.615,2.281-3.695,3.674c-0.356,0.455-1.248,1.631-1.896,1.631
		c-1.06,0-1.32-1.512-1.348-2.323c-0.068-1.656,1.439-4.08,2.832-5.261c0.313-0.264,0.528-0.284,0.938-0.284
		c1.438,0.049,1.317,0.385,1.317,0.524c0,0.938-3.021,3.359-3.021,3.938c0,0.146,0.12,0.267,0.265,0.267
		c0.168,0,0.388-0.218,0.479-0.336c1.92-2.447,6.336-5.4,7.032-5.4c0.097,0,0.237,0.121,0.385,0.457
		c0.145,0.357,0.288,0.791,0.356,1.295c0,0.939-2.948,2.763-2.948,4.416c0,0.219,0.188,0.436,0.432,0.436
		c0.576,0,1.633-0.841,2.063-1.199L80.013,40.434z"/>
	<path fill="#F8AE5D" d="M89.349,35.178c-1.128,2.279-1.32,3.168-3.96,3c-0.813,1.055-2.185,3.023-2.185,4.463
		c0,0.529,0.168,0.842,0.72,0.842c0.769,0,1.633-0.721,4.129-2.496l0.119,1.06c-1.417,1.298-4.009,3.86-6.049,3.86
		c-0.938,0-1.516-0.645-1.516-1.604c0-0.789,0.313-1.699,0.624-2.396l-0.048-0.047l-1.225,0.979l-0.26-0.916
		c1.438-1.104,2.76-2.327,3.646-3.841c-1.465,0-1.009-0.098-2.28,0.098l0.268-0.434c1.296-2.111,1.484-2.497,4.057-2.594
		c0.72-0.983,1.249-2.11,2.641-2.11c0.313,0,0.771,0.069,0.771,0.455c0,0.435-0.695,1.226-0.938,1.562L89.349,35.178z"/>
	<path fill="#F8AE5D" d="M90.74,42.161c1.176-0.937,5.544-4.776,6.861-4.776c0.576,0,1.151,0.6,1.151,1.152
		c0,0.456-0.96,1.512-1.248,1.848c-1.487,1.801-1.416,1.873-1.416,2.113c0,0.313,0.24,0.504,0.528,0.504
		c0.792,0,2.544-1.297,3.236-1.753l0.12,0.983c-1.104,0.84-4.008,3.188-5.329,3.188c-0.72,0-1.104-0.625-1.104-1.271
		c0-1.512,1.655-3.336,2.521-4.463l-0.048-0.049c-4.104,2.809-5.305,5.354-6.071,5.354c-0.841,0-0.961-1.873-0.961-2.428
		c0-1.653,0.624-2.807,1.468-4.176c2.832-4.683,7.605-8.879,8.425-8.879c0.385,0,1.032,0.167,1.032,0.643
		c0,1.636-7.637,9.556-9.172,11.064v0.939h0.005L90.74,42.161L90.74,42.161z"/>
	<path fill="#F8AE5D" d="M113.324,36.977c2.424,0.576,3.552,1.854,3.552,3.024c0,4.776-8.376,5.544-11.833,5.544
		c-0.938,0-3.863,0-3.863-1.393c0-0.504,0.84-1.775,1.224-2.135c0.288-0.24,1.704-0.697,2.063-0.697c0.12,0,0.192,0.025,0.192,0.168
		c0,0.24-0.24,0.361-0.408,0.457c-0.146,0.096-0.268,0.216-0.408,0.359v0.049c8.569,0.313,10.922-2.16,10.922-2.545
		c0-1.229-6.646-2.188-7.801-2.375c-1.199-0.193-2.447-0.576-2.447-2.021c0-0.791,0.384-2.543,0.771-3.188
		c0.74-1.229,5.088-3.504,10.345-3.504c1.009,0,2.017,0.119,3.021,0.336c0.556,0.119,0.624,0.312,0.624,0.792
		c0,1.776-0.601,2.184-2.016,2.735c-1.032,0.386-1.225,0.504-2.16,1.177c-0.168,0.096-0.408,0.239-0.601,0.239
		c-0.239,0-0.384-0.119-0.384-0.358c0-0.049,0.456-0.793,1.752-1.681l-0.052-0.049c-6.188,0.217-8.854,2.448-8.881,3
		C106.939,35.248,106.627,35.416,113.324,36.977z"/>
	<path fill="#F8AE5D" d="M126.14,38.801c0.504-0.455,2.855-2.736,3.457-2.736c0.191,0,0.456,0.072,0.552,1.32
		c0.048,0.576-0.601,1.129-0.98,1.465c-0.771,0.695-2.476,2.592-2.476,3.672c0,0.385,0.22,0.527,0.604,0.527
		c0.912,0,2.977-1.68,3.696-2.256l0.144,1.032c-1.224,1.177-3.769,3.937-5.544,3.937c-0.888,0-1.416-0.744-1.416-1.584
		c0-0.721,0.265-1.393,0.504-2.017l-0.048-0.048c-0.938,0.816-2.544,2.977-3.864,2.977c-1.177,0-1.824-1.344-1.824-2.377
		c0-2.328,1.804-4.729,3.336-5.736c0.339-0.215,0.647-0.264,1.06-0.264c0.336,0,1.561-0.217,1.464,0.504
		c-0.048,0.385-0.695,1.057-0.96,1.271c-0.744,0.841-0.888,1.057-1.823,1.729c-0.744,0.528-1.318,1.057-1.318,2.064
		c0,0.119,0.021,0.359,0.189,0.359c0.435,0,1.753-0.695,2.881-1.703L126.14,38.801z"/>
	<path fill="#F8AE5D" d="M133.891,40.648c-0.433,1.513,0.146,2.761,1.056,2.641c0.771-0.119,1.2-0.768,1.608-1.248
		c-0.192-0.313-0.336-0.553-0.336-0.936c0-1.396,1.92-3.744,3.336-3.744c0.575,0,0.72,0.6,0.72,1.056c0,1.009-0.74,2.112-1.148,3
		c0.98,0.192,1.772-0.336,2.544-0.888l0.24,0.791c-1.08,1.129-2.308,1.514-3.844,1.537c-1.028,1.08-2.712,2.543-4.296,2.543
		c-1.562,0-1.772-2.328-1.772-3.479c0-3.024,1.416-5.594,3.313-7.851c1.943-2.327,5.712-5.255,6.722-5.255
		c0.479,0,0.694,0.432,0.694,0.888c0,2.186-3.553,5.783-5.088,7.271L133.891,40.648z M134.755,38.105l0.049,0.047
		c5.017-4.992,5.544-6.359,5.952-7.225l-0.048-0.052C138.332,32.896,136.171,35.32,134.755,38.105z"/>
</g>
<text transform="matrix(1 0 0 1 28.0022 -53.5361)" fill="#231F20" font-family="'BrushScriptStd'" font-size="24">M</text>
<g>
	<path fill="#231F20" d="M83.795-57.136c-1.08,1.367-2.136,1.943-3.889,1.943c-1.012,1.032-2.188,1.801-3.696,1.801
		c-1.248,0-2.399-1.248-2.496-3.433c-0.048-1.8,0.841-3.001,2.185-4.032c1.296-1.057,3.023-1.705,4.489-1.776
		c0.527-0.024,1.319,0.216,1.319,0.864c0,0.359-0.288,0.504-0.556,0.648c0.724,0.191,0.864,0.695,0.864,1.416
		c0,1.056-0.479,1.896-0.937,2.832c1.057,0.191,1.729-0.721,2.473-1.272L83.795-57.136z M76.475-58.265
		c-0.528,0.528-0.98,1.465-0.98,2.209c0,0.695,0.452,0.912,1.056,0.912c0.792,0,1.296-0.457,1.849-0.961
		c-0.168-0.384-0.288-0.695-0.288-1.104c0-1.248,1.128-2.761,1.032-2.809C78.323-59.536,77.195-58.96,76.475-58.265z"/>
	<path fill="#231F20" d="M95.939-58.288l0.191,1.056c-1.271,1.128-3.743,4.081-5.496,4.081c-0.911,0-1.344-0.77-1.344-1.585
		c0-1.44,1.296-3.024,2.063-4.128l-0.048-0.049c-1.393,1.033-2.616,2.281-3.696,3.673c-0.356,0.456-1.248,1.632-1.896,1.632
		c-1.056,0-1.319-1.512-1.344-2.328c-0.072-1.656,1.438-4.08,2.832-5.256c0.313-0.265,0.524-0.289,0.937-0.289
		c1.439,0.049,1.319,0.385,1.319,0.529c0,0.936-3.023,3.359-3.023,3.936c0,0.145,0.12,0.264,0.268,0.264
		c0.168,0,0.384-0.215,0.479-0.336c1.92-2.447,6.336-5.4,7.032-5.4c0.097,0,0.24,0.121,0.385,0.457
		c0.146,0.359,0.287,0.791,0.359,1.295c0,0.937-2.952,2.761-2.952,4.417c0,0.216,0.188,0.433,0.433,0.433
		c0.576,0,1.632-0.841,2.063-1.201L95.939-58.288z"/>
	<path fill="#231F20" d="M105.275-63.545c-1.128,2.28-1.316,3.168-3.96,3c-0.813,1.056-2.185,3.024-2.185,4.464
		c0,0.529,0.168,0.841,0.721,0.841c0.771,0,1.632-0.72,4.128-2.496l0.12,1.056c-1.417,1.297-4.01,3.865-6.05,3.865
		c-0.938,0-1.512-0.648-1.512-1.609c0-0.791,0.313-1.703,0.624-2.399l-0.052-0.048l-1.224,0.984l-0.26-0.913
		c1.438-1.104,2.761-2.328,3.646-3.841c-1.464,0-1.008-0.097-2.276,0.096l0.264-0.432c1.297-2.112,1.488-2.497,4.057-2.593
		c0.724-0.984,1.249-2.111,2.645-2.111c0.313,0,0.769,0.071,0.769,0.455c0,0.433-0.694,1.225-0.937,1.561L105.275-63.545z"/>
	<path fill="#231F20" d="M106.666-56.561c1.176-0.937,5.544-4.776,6.865-4.776c0.572,0,1.148,0.6,1.148,1.152
		c0,0.456-0.96,1.512-1.248,1.848c-1.488,1.801-1.416,1.873-1.416,2.113c0,0.312,0.239,0.504,0.527,0.504
		c0.792,0,2.544-1.297,3.24-1.753l0.117,0.984c-1.104,0.84-4.009,3.192-5.326,3.192c-0.724,0-1.104-0.625-1.104-1.272
		c0-1.513,1.655-3.336,2.521-4.464l-0.052-0.049c-4.104,2.809-5.304,5.354-6.068,5.354c-0.84,0-0.96-1.873-0.96-2.425
		c0-1.656,0.624-2.808,1.464-4.177c2.832-4.68,7.605-8.881,8.426-8.881c0.384,0,1.031,0.168,1.031,0.648
		c0,1.633-7.633,9.553-9.169,11.064L106.666-56.561L106.666-56.561z"/>
	<path fill="#231F20" d="M129.25-61.745c2.424,0.576,3.552,1.849,3.552,3.024c0,4.776-8.376,5.544-11.833,5.544
		c-0.936,0-3.863,0-3.863-1.392c0-0.504,0.84-1.776,1.228-2.136c0.288-0.24,1.704-0.696,2.063-0.696c0.12,0,0.191,0.024,0.191,0.168
		c0,0.239-0.239,0.36-0.408,0.456c-0.144,0.096-0.264,0.216-0.407,0.359v0.049c8.568,0.313,10.921-2.16,10.921-2.545
		c0-1.224-6.646-2.184-7.8-2.375c-1.2-0.193-2.448-0.576-2.448-2.018c0-0.791,0.388-2.543,0.771-3.191
		c0.744-1.225,5.088-3.504,10.346-3.504c1.008,0,2.02,0.119,3.023,0.336c0.552,0.119,0.624,0.312,0.624,0.791
		c0,1.777-0.604,2.185-2.02,2.736c-1.03,0.385-1.225,0.504-2.16,1.177c-0.168,0.096-0.404,0.239-0.601,0.239
		c-0.239,0-0.384-0.119-0.384-0.359c0-0.048,0.456-0.792,1.752-1.68l-0.048-0.049c-6.191,0.217-8.855,2.449-8.881,3
		C122.866-63.474,122.554-63.306,129.25-61.745z"/>
	<path fill="#231F20" d="M142.066-59.921c0.504-0.456,2.855-2.736,3.457-2.736c0.191,0,0.456,0.072,0.556,1.32
		c0.048,0.576-0.604,1.129-0.984,1.465c-0.768,0.695-2.472,2.592-2.472,3.672c0,0.384,0.216,0.527,0.601,0.527
		c0.911,0,2.978-1.68,3.695-2.256l0.145,1.032c-1.225,1.177-3.77,3.937-5.544,3.937c-0.889,0-1.416-0.744-1.416-1.584
		c0-0.721,0.268-1.393,0.504-2.017l-0.048-0.048c-0.938,0.816-2.545,2.977-3.865,2.977c-1.176,0-1.82-1.344-1.82-2.377
		c0-2.328,1.8-4.729,3.336-5.736c0.336-0.216,0.646-0.264,1.056-0.264c0.336,0,1.563-0.217,1.465,0.504
		c-0.049,0.385-0.694,1.057-0.96,1.271c-0.744,0.841-0.889,1.057-1.824,1.729c-0.742,0.528-1.316,1.057-1.316,2.064
		c0,0.12,0.021,0.359,0.188,0.359c0.436,0,1.752-0.695,2.88-1.703L142.066-59.921z"/>
	<path fill="#231F20" d="M149.817-58.073c-0.433,1.513,0.146,2.761,1.06,2.641c0.769-0.119,1.2-0.768,1.604-1.248
		c-0.188-0.313-0.336-0.552-0.336-0.936c0-1.393,1.92-3.744,3.336-3.744c0.576,0,0.724,0.6,0.724,1.056c0,1.009-0.744,2.112-1.152,3
		c0.984,0.192,1.776-0.336,2.544-0.888l0.24,0.792c-1.08,1.128-2.308,1.513-3.84,1.536c-1.032,1.08-2.712,2.544-4.296,2.544
		c-1.563,0-1.776-2.328-1.776-3.479c0-3.025,1.416-5.594,3.313-7.85c1.944-2.328,5.715-5.256,6.724-5.256
		c0.479,0,0.692,0.432,0.692,0.888c0,2.185-3.552,5.784-5.088,7.272L149.817-58.073z M150.682-60.616l0.048,0.047
		c5.021-4.992,5.544-6.359,5.953-7.225l-0.049-0.047C154.258-65.825,152.098-63.401,150.682-60.616z"/>
</g>
<g>
	<g>
		<g>
			
				<line fill="none" stroke="#231F20" stroke-width="6" stroke-linecap="round" stroke-miterlimit="10" x1="27.925" y1="-95.722" x2="27.925" y2="-89.388"/>
		</g>
		<g>
			
				<line fill="none" stroke="#231F20" stroke-width="6" stroke-linecap="round" stroke-miterlimit="10" x1="56.926" y1="-95.722" x2="56.926" y2="-89.388"/>
		</g>
	</g>
	<line fill="none" stroke="#231F20" stroke-width="3" stroke-miterlimit="10" x1="17.426" y1="-79.037" x2="67.426" y2="-79.037"/>
	<path fill="none" stroke="#231F20" stroke-width="3" stroke-miterlimit="10" d="M67.426-46.042c0,1.927-1.563,3.487-3.487,3.487
		H20.914c-1.93,0-3.487-1.561-3.487-3.487v-43.024c0-1.926,1.563-3.488,3.487-3.488h43.021c1.926,0,3.487,1.563,3.487,3.488
		L67.426-46.042L67.426-46.042z"/>
</g>
<g>
	<rect x="173.723" y="-114.051" fill="#F8AE5D" width="50" height="13.517"/>
	<path fill="#091C2C" d="M220.235-62.051H177.21c-3.025,0-5.486-2.462-5.486-5.488v-43.023c0-3.026,2.461-5.488,5.486-5.488h43.021
		c3.025,0,5.488,2.462,5.488,5.488v43.023C225.723-64.513,223.26-62.051,220.235-62.051z M177.21-112.051
		c-0.819,0-1.486,0.668-1.486,1.488v43.023c0,0.82,0.667,1.488,1.486,1.488h43.021c0.821,0,1.488-0.668,1.488-1.488v-43.023
		c0-0.82-0.667-1.488-1.488-1.488H177.21z"/>
	<g>
		<path fill="#0B1B2B" d="M197.165-80.913c2.256-2.952,3.068-4.272,3.888-5.856c0.408-0.769,0.313-1.032,0.049-1.032
			c-0.288,0-0.576,0.313-0.744,0.504l-5.761,6.24l-3.601,4.849c-0.408,0.552-1.012,1.464-1.776,1.464
			c-1.008,0-1.487-1.896-1.752-2.64l5.017-6.337c2.521-4.512,2.092-4.992,1.684-4.992c-0.191,0-0.556,0.191-0.744,0.288
			c-7.396,3.456-6.239,3.505-7.464,3.505c-0.385,0-0.696-0.313-0.576-0.889c0.24-1.297,0.433-2.616,0.624-2.832
			c0.216-0.288,0.072-0.24,2.208-1.752c0.12-0.097,0.433-0.336,0.601-0.336c0.12,0,0.288,0.096,0.288,0.239
			c0,0.143-0.336,0.576-1.271,1.392l0.048,0.049l2.712-1.248c0.288-0.12,3.672-1.729,4.536-1.68
			c0.576,0.023,0.672,0.359,0.912,0.768l0.574,1.008c0.169,0.313,0.286,0.553,0.286,0.912c0,0.792-1.225,3.289-1.484,4.176
			l0.048,0.049l3.813-3.696c0.892-0.841,2.932-2.641,3.912-2.665c0.527-0.023,1.752,0.408,1.752,1.656
			c0,1.777-2.592,5.329-3.573,6.842l0.049,0.047c2.953-2.544,5.713-5.16,8.854-7.656c0.313-0.264,0.792-0.768,1.228-0.768
			c0.646,0,1.652,1.56,1.652,2.063c0,0.479-0.741,1.32-1.028,1.681l-3.724,4.536c-1.104,1.345-2.761,3.624-2.761,5.448
			c0,0.48,0.265,1.176,0.841,1.176c0.672,0,2.544-1.08,5.784-4.224l0.097,0.912c-0.572,1.655-5.733,5.736-7.801,5.736
			c-1.584,0-2.11-1.513-2.11-2.904c0-2.88,3.05-6.48,4.729-8.665l-0.048-0.048c-4.081,3.456-5.4,4.536-9.169,9.313
			c-0.359,0.455-1.516,1.824-2.112,1.824c-0.936,0-1.271-1.729-1.271-2.425c0-0.672,0.572-1.392,0.96-1.896L197.165-80.913z"/>
	</g>
	<g>
		<path fill="#0B1B2B" d="M239.092-78.633c-1.079,1.368-2.136,1.944-3.889,1.944c-1.012,1.031-2.188,1.8-3.696,1.8
			c-1.248,0-2.399-1.248-2.496-3.433c-0.048-1.8,0.841-3,2.185-4.032c1.3-1.056,3.023-1.704,4.489-1.776
			c0.527-0.023,1.319,0.217,1.319,0.864c0,0.36-0.288,0.505-0.552,0.648c0.72,0.192,0.86,0.696,0.86,1.416
			c0,1.056-0.479,1.896-0.937,2.832c1.057,0.192,1.729-0.72,2.473-1.272L239.092-78.633z M231.771-79.761
			c-0.524,0.527-0.98,1.464-0.98,2.208c0,0.696,0.456,0.912,1.056,0.912c0.792,0,1.297-0.456,1.849-0.96
			c-0.168-0.385-0.286-0.696-0.286-1.104c0-1.248,1.13-2.761,1.03-2.808C233.62-81.033,232.492-80.457,231.771-79.761z"/>
		<path fill="#0B1B2B" d="M251.236-79.785l0.191,1.056c-1.271,1.129-3.743,4.081-5.495,4.081c-0.912,0-1.345-0.769-1.345-1.585
			c0-1.439,1.296-3.023,2.063-4.128l-0.048-0.048c-1.393,1.032-2.616,2.28-3.692,3.672c-0.36,0.457-1.248,1.633-1.896,1.633
			c-1.057,0-1.32-1.512-1.345-2.328c-0.071-1.656,1.438-4.08,2.832-5.257c0.313-0.265,0.524-0.288,0.937-0.288
			c1.439,0.049,1.319,0.385,1.319,0.528c0,0.937-3.023,3.36-3.023,3.937c0,0.144,0.12,0.264,0.268,0.264
			c0.168,0,0.384-0.216,0.479-0.336c1.92-2.448,6.336-5.4,7.032-5.4c0.097,0,0.24,0.12,0.385,0.456
			c0.146,0.36,0.288,0.792,0.359,1.296c0,0.936-2.952,2.76-2.952,4.416c0,0.217,0.192,0.433,0.433,0.433
			c0.576,0,1.634-0.841,2.063-1.2L251.236-79.785z"/>
		<path fill="#0B1B2B" d="M260.572-85.042c-1.129,2.281-1.316,3.168-3.961,3c-0.813,1.057-2.185,3.025-2.185,4.465
			c0,0.528,0.168,0.84,0.721,0.84c0.771,0,1.632-0.72,4.128-2.496l0.121,1.057c-1.417,1.296-4.009,3.864-6.049,3.864
			c-0.937,0-1.513-0.648-1.513-1.608c0-0.792,0.313-1.704,0.624-2.4l-0.048-0.048l-1.228,0.984l-0.265-0.912
			c1.438-1.104,2.761-2.328,3.646-3.841c-1.464,0-1.008-0.096-2.276,0.096l0.265-0.432c1.296-2.111,1.487-2.496,4.056-2.592
			c0.725-0.984,1.248-2.112,2.645-2.112c0.313,0,0.769,0.071,0.769,0.456c0,0.432-0.691,1.225-0.937,1.561L260.572-85.042z"/>
		<path fill="#0B1B2B" d="M261.963-78.058c1.177-0.936,5.545-4.775,6.865-4.775c0.571,0,1.147,0.6,1.147,1.152
			c0,0.455-0.96,1.512-1.248,1.848c-1.484,1.8-1.416,1.872-1.416,2.112c0,0.312,0.239,0.504,0.528,0.504
			c0.79,0,2.544-1.296,3.239-1.753l0.119,0.984c-1.104,0.84-4.012,3.193-5.328,3.193c-0.724,0-1.104-0.625-1.104-1.273
			c0-1.512,1.655-3.336,2.521-4.464l-0.048-0.048c-4.104,2.809-5.308,5.353-6.072,5.353c-0.841,0-0.96-1.872-0.96-2.425
			c0-1.656,0.623-2.808,1.464-4.176c2.832-4.681,7.608-8.881,8.426-8.881c0.384,0,1.031,0.168,1.031,0.648
			c0,1.632-7.633,9.553-9.169,11.064L261.963-78.058L261.963-78.058z"/>
		<path fill="#0B1B2B" d="M284.547-83.241c2.426,0.576,3.554,1.848,3.554,3.021c0,4.777-8.377,5.545-11.833,5.545
			c-0.938,0-3.864,0-3.864-1.393c0-0.504,0.844-1.775,1.229-2.136c0.287-0.239,1.703-0.696,2.063-0.696
			c0.12,0,0.191,0.024,0.191,0.168c0,0.24-0.239,0.36-0.407,0.457c-0.146,0.096-0.265,0.215-0.408,0.359v0.049
			c8.567,0.312,10.922-2.161,10.922-2.545c0-1.225-6.646-2.184-7.801-2.376c-1.2-0.192-2.446-0.576-2.446-2.017
			c0-0.792,0.386-2.544,0.77-3.191c0.743-1.225,5.09-3.505,10.346-3.505c1.01,0,2.02,0.12,3.023,0.336
			c0.553,0.12,0.624,0.312,0.624,0.792c0,1.776-0.604,2.184-2.02,2.736c-1.029,0.384-1.226,0.504-2.156,1.176
			c-0.169,0.096-0.408,0.24-0.604,0.24c-0.24,0-0.385-0.12-0.385-0.359c0-0.049,0.455-0.793,1.752-1.681l-0.049-0.048
			c-6.19,0.216-8.854,2.448-8.881,3C278.162-84.97,277.851-84.802,284.547-83.241z"/>
		<path fill="#0B1B2B" d="M297.363-81.417c0.508-0.457,2.854-2.736,3.456-2.736c0.191,0,0.456,0.072,0.556,1.32
			c0.049,0.576-0.604,1.128-0.983,1.464c-0.769,0.696-2.473,2.593-2.473,3.673c0,0.383,0.216,0.527,0.602,0.527
			c0.912,0,2.979-1.68,3.694-2.256l0.146,1.031c-1.226,1.177-3.77,3.938-5.545,3.938c-0.889,0-1.416-0.744-1.416-1.585
			c0-0.72,0.268-1.392,0.504-2.017l-0.047-0.047c-0.938,0.815-2.545,2.976-3.862,2.976c-1.179,0-1.823-1.344-1.823-2.376
			c0-2.328,1.801-4.729,3.336-5.736c0.336-0.217,0.646-0.264,1.058-0.264c0.336,0,1.563-0.217,1.465,0.504
			c-0.049,0.384-0.693,1.056-0.961,1.271c-0.743,0.84-0.889,1.057-1.821,1.729c-0.743,0.527-1.319,1.057-1.319,2.064
			c0,0.119,0.021,0.359,0.189,0.359c0.436,0,1.755-0.695,2.883-1.704L297.363-81.417z"/>
		<path fill="#0B1B2B" d="M305.115-79.569c-0.436,1.512,0.144,2.76,1.056,2.641c0.77-0.12,1.201-0.768,1.605-1.248
			c-0.189-0.313-0.336-0.553-0.336-0.937c0-1.392,1.921-3.744,3.336-3.744c0.576,0,0.724,0.601,0.724,1.056
			c0,1.009-0.744,2.113-1.151,3c0.983,0.193,1.775-0.336,2.544-0.887l0.239,0.791c-1.08,1.129-2.304,1.513-3.84,1.537
			c-1.032,1.08-2.713,2.543-4.297,2.543c-1.563,0-1.774-2.328-1.774-3.479c0-3.024,1.415-5.593,3.313-7.849
			c1.939-2.328,5.712-5.257,6.72-5.257c0.479,0,0.696,0.433,0.696,0.888c0,2.185-3.557,5.785-5.092,7.273L305.115-79.569z
			 M305.979-82.113l0.048,0.048c5.021-4.992,5.544-6.36,5.952-7.225l-0.047-0.048C309.555-87.321,307.395-84.897,305.979-82.113z"/>
	</g>
	<g>
		<g>
			<path fill="#0B1B2B" d="M184.222-106.551c-1.382,0-2.5-1.119-2.5-2.5v-10c0-1.381,1.118-2.5,2.5-2.5c1.381,0,2.5,1.119,2.5,2.5
				v10C186.722-107.67,185.603-106.551,184.222-106.551z"/>
		</g>
		<g>
			<path fill="#0B1B2B" d="M213.223-106.551c-1.382,0-2.5-1.119-2.5-2.5v-10c0-1.381,1.118-2.5,2.5-2.5c1.381,0,2.5,1.119,2.5,2.5
				v10C215.723-107.67,214.604-106.551,213.223-106.551z"/>
		</g>
	</g>
	<rect x="173.723" y="-102.534" fill="#0B1B2B" width="50" height="4"/>
</g>
<g>
	
		<text transform="matrix(1 0 0 1 39.0593 -321.6914)" fill="#231F20" font-family="'MuseumClassicMedium-KSCpc-EUC-H'" font-size="24">M</text>
	
		<text transform="matrix(1 0 0 1 77.4543 -323.6914)" fill="#231F20" font-family="'MuseumClassicMedium-KSCpc-EUC-H'" font-size="24">onthSub</text>
	<g>
		<g>
			<g>
				
					<line fill="none" stroke="#231F20" stroke-width="5" stroke-linecap="round" stroke-miterlimit="10" x1="34.387" y1="-368.709" x2="34.387" y2="-358.709"/>
			</g>
			<g>
				
					<line fill="none" stroke="#231F20" stroke-width="5" stroke-linecap="round" stroke-miterlimit="10" x1="63.388" y1="-368.709" x2="63.388" y2="-358.709"/>
			</g>
		</g>
		
			<line fill="none" stroke="#231F20" stroke-width="4" stroke-miterlimit="10" x1="23.888" y1="-350.192" x2="73.888" y2="-350.192"/>
		<path fill="none" stroke="#231F20" stroke-width="4" stroke-miterlimit="10" d="M73.888-317.197c0,1.926-1.563,3.488-3.488,3.488
			H27.375c-1.926,0-3.486-1.562-3.486-3.488v-43.024c0-1.926,1.563-3.488,3.486-3.488h43.021c1.93,0,3.488,1.562,3.488,3.488
			L73.888-317.197L73.888-317.197z"/>
	</g>
</g>
<text transform="matrix(1 0 0 1 38.0935 -240.3418)" fill="#231F20" font-family="'WandohopeB'" font-size="28">M</text>
<text transform="matrix(1 0 0 1 80.4602 -243.0078)" fill="#231F20" font-family="'WandohopeR'" font-size="24">onthSub</text>
<g>
	<g>
		<g>
			
				<line fill="none" stroke="#231F20" stroke-width="5" stroke-linecap="round" stroke-miterlimit="10" x1="35.353" y1="-285.358" x2="35.353" y2="-275.358"/>
		</g>
		<g>
			
				<line fill="none" stroke="#231F20" stroke-width="5" stroke-linecap="round" stroke-miterlimit="10" x1="64.354" y1="-285.358" x2="64.354" y2="-275.358"/>
		</g>
	</g>
	
		<line fill="none" stroke="#231F20" stroke-width="4" stroke-miterlimit="10" x1="24.854" y1="-266.842" x2="74.854" y2="-266.842"/>
	<path fill="none" stroke="#231F20" stroke-width="4" stroke-miterlimit="10" d="M74.854-233.846c0,1.926-1.563,3.487-3.484,3.487
		H28.341c-1.926,0-3.486-1.562-3.486-3.487v-43.024c0-1.926,1.563-3.488,3.486-3.488h43.024c1.926,0,3.484,1.563,3.484,3.488
		L74.854-233.846L74.854-233.846z"/>
</g>
</svg>
