<?xml version="1.0" encoding="utf-8"?>
<!-- Generator: Adobe Illustrator 16.0.0, SVG Export Plug-In . SVG Version: 6.00 Build 0)  -->
<!DOCTYPE svg PUBLIC "-//W3C//DTD SVG 1.1//EN" "http://www.w3.org/Graphics/SVG/1.1/DTD/svg11.dtd">
<svg version="1.1" id="Layer_1" xmlns="http://www.w3.org/2000/svg" xmlns:xlink="http://www.w3.org/1999/xlink" x="0px" y="0px"
	 width="142.322px" height="59.5px" viewBox="0 0 142.322 59.5" enable-background="new 0 0 142.322 59.5" xml:space="preserve">
<text transform="matrix(1 0 0 1 73.585 -470.6313)" fill="#231F20" font-family="'CooperBlackStd'" font-size="24">onthSub</text>
<g>
	<text transform="matrix(1 0 0 1 32.855 -470.6313)" fill="#231F20" font-family="'CooperBlackStd'" font-size="24">M</text>
	<g>
		<g>
			<g>
				
					<line fill="none" stroke="#231F20" stroke-width="5" stroke-linecap="round" stroke-miterlimit="10" x1="29.501" y1="-515.649" x2="29.501" y2="-505.649"/>
			</g>
			<g>
				
					<line fill="none" stroke="#231F20" stroke-width="5" stroke-linecap="round" stroke-miterlimit="10" x1="58.502" y1="-515.649" x2="58.502" y2="-505.649"/>
			</g>
		</g>
		
			<line fill="none" stroke="#231F20" stroke-width="4" stroke-miterlimit="10" x1="19.002" y1="-497.133" x2="69.002" y2="-497.133"/>
		<path fill="none" stroke="#231F20" stroke-width="4" stroke-miterlimit="10" d="M69.002-464.137c0,1.926-1.563,3.488-3.488,3.488
			H22.49c-1.926,0-3.487-1.562-3.487-3.488v-43.024c0-1.926,1.562-3.488,3.487-3.488h43.024c1.926,0,3.488,1.562,3.488,3.488
			V-464.137z"/>
	</g>
</g>
<g>
	
		<text transform="matrix(1 0 0 1 29.5786 -397.4482)" fill="#231F20" font-family="'BrushScriptStd'" font-size="24" letter-spacing="1">M</text>
	
		<text transform="matrix(1 0 0 1 75.5786 -397.4482)" fill="#231F20" font-family="'BrushScriptStd'" font-size="24" letter-spacing="1">onthSub</text>
	<g>
		<g>
			<g>
				
					<line fill="none" stroke="#231F20" stroke-width="5" stroke-linecap="round" stroke-miterlimit="10" x1="29.501" y1="-441.466" x2="29.501" y2="-431.466"/>
			</g>
			<g>
				
					<line fill="none" stroke="#231F20" stroke-width="5" stroke-linecap="round" stroke-miterlimit="10" x1="58.502" y1="-441.466" x2="58.502" y2="-431.466"/>
			</g>
		</g>
		<line fill="none" stroke="#231F20" stroke-width="4" stroke-miterlimit="10" x1="19.002" y1="-422.95" x2="69.002" y2="-422.95"/>
		<path fill="none" stroke="#231F20" stroke-width="4" stroke-miterlimit="10" d="M69.002-389.954c0,1.926-1.563,3.488-3.488,3.488
			H22.49c-1.926,0-3.487-1.562-3.487-3.488v-43.024c0-1.926,1.562-3.488,3.487-3.488h43.024c1.926,0,3.488,1.562,3.488,3.488
			V-389.954z"/>
	</g>
</g>
<g>
	<rect x="2.098" y="7.5" fill="#F8AE5D" width="50" height="13.517"/>
	<path fill="#091C2C" d="M48.609,59.5H5.585c-3.026,0-5.487-2.462-5.487-5.488V10.988c0-3.026,2.461-5.488,5.487-5.488h43.024
		c3.026,0,5.488,2.462,5.488,5.488v43.023C54.098,57.038,51.636,59.5,48.609,59.5z M5.585,9.5c-0.82,0-1.487,0.668-1.487,1.488
		v43.023c0,0.82,0.667,1.488,1.487,1.488h43.024c0.821,0,1.488-0.668,1.488-1.488V10.988c0-0.82-0.667-1.488-1.488-1.488H5.585z"/>
	<g>
		<path fill="#0B1B2B" d="M25.539,40.638c2.256-2.952,3.072-4.272,3.888-5.856c0.408-0.769,0.312-1.032,0.048-1.032
			c-0.288,0-0.576,0.313-0.744,0.504l-5.761,6.24l-3.6,4.849c-0.408,0.552-1.008,1.464-1.776,1.464c-1.008,0-1.488-1.896-1.752-2.64
			l5.016-6.337c2.521-4.512,2.088-4.992,1.68-4.992c-0.192,0-0.552,0.191-0.744,0.288c-7.393,3.456-6.24,3.505-7.464,3.505
			c-0.384,0-0.696-0.313-0.576-0.889c0.24-1.297,0.432-2.616,0.624-2.832c0.216-0.288,0.072-0.24,2.208-1.752
			c0.12-0.097,0.432-0.336,0.6-0.336c0.12,0,0.288,0.096,0.288,0.239s-0.336,0.576-1.272,1.392l0.048,0.049l2.712-1.248
			c0.288-0.12,3.672-1.729,4.536-1.68c0.576,0.023,0.672,0.359,0.912,0.768l0.576,1.008c0.168,0.313,0.288,0.553,0.288,0.912
			c0,0.792-1.224,3.289-1.488,4.176l0.048,0.049l3.816-3.696c0.888-0.841,2.928-2.641,3.912-2.665
			c0.528-0.023,1.752,0.408,1.752,1.656c0,1.777-2.592,5.329-3.576,6.842l0.048,0.047c2.953-2.544,5.713-5.16,8.857-7.656
			c0.312-0.264,0.792-0.768,1.224-0.768c0.648,0,1.656,1.56,1.656,2.063c0,0.48-0.744,1.32-1.032,1.681l-3.72,4.536
			c-1.104,1.345-2.76,3.624-2.76,5.448c0,0.48,0.264,1.176,0.84,1.176c0.672,0,2.544-1.08,5.785-4.224l0.096,0.912
			c-0.576,1.655-5.737,5.736-7.801,5.736c-1.584,0-2.112-1.513-2.112-2.904c0-2.88,3.048-6.48,4.729-8.665L35.5,35.957
			c-4.081,3.456-5.401,4.536-9.169,9.313c-0.36,0.455-1.512,1.824-2.112,1.824c-0.936,0-1.272-1.729-1.272-2.425
			c0-0.672,0.576-1.392,0.96-1.896L25.539,40.638z"/>
	</g>
	<g>
		<path fill="#0B1B2B" d="M67.467,42.918c-1.08,1.368-2.136,1.944-3.889,1.944c-1.008,1.031-2.184,1.8-3.696,1.8
			c-1.248,0-2.4-1.248-2.496-3.433c-0.048-1.8,0.84-3,2.184-4.032c1.296-1.056,3.024-1.704,4.489-1.776
			c0.528-0.023,1.32,0.217,1.32,0.864c0,0.36-0.288,0.505-0.552,0.648c0.72,0.192,0.864,0.696,0.864,1.416
			c0,1.056-0.48,1.896-0.936,2.832c1.056,0.192,1.728-0.72,2.472-1.272L67.467,42.918z M60.146,41.79
			c-0.528,0.527-0.984,1.464-0.984,2.208c0,0.696,0.456,0.912,1.056,0.912c0.792,0,1.296-0.456,1.848-0.96
			c-0.168-0.385-0.288-0.696-0.288-1.104c0-1.248,1.128-2.761,1.032-2.808C61.994,40.518,60.866,41.094,60.146,41.79z"/>
		<path fill="#0B1B2B" d="M79.611,41.766l0.192,1.056c-1.272,1.129-3.744,4.081-5.496,4.081c-0.912,0-1.344-0.769-1.344-1.585
			c0-1.439,1.296-3.023,2.064-4.128l-0.048-0.048c-1.392,1.032-2.616,2.28-3.696,3.672c-0.36,0.457-1.248,1.633-1.896,1.633
			c-1.056,0-1.32-1.512-1.344-2.328c-0.072-1.656,1.44-4.08,2.832-5.257c0.312-0.265,0.528-0.288,0.936-0.288
			c1.44,0.049,1.32,0.385,1.32,0.528c0,0.937-3.024,3.36-3.024,3.937c0,0.144,0.12,0.264,0.264,0.264
			c0.168,0,0.384-0.216,0.48-0.336c1.92-2.448,6.336-5.4,7.033-5.4c0.096,0,0.24,0.12,0.384,0.456
			c0.144,0.36,0.288,0.792,0.36,1.296c0,0.936-2.952,2.76-2.952,4.416c0,0.217,0.192,0.433,0.432,0.433
			c0.576,0,1.632-0.841,2.064-1.2L79.611,41.766z"/>
		<path fill="#0B1B2B" d="M88.946,36.509c-1.128,2.281-1.32,3.168-3.96,3c-0.816,1.057-2.184,3.025-2.184,4.465
			c0,0.528,0.168,0.84,0.72,0.84c0.768,0,1.632-0.72,4.128-2.496l0.12,1.057c-1.417,1.296-4.009,3.864-6.049,3.864
			c-0.936,0-1.512-0.648-1.512-1.608c0-0.792,0.312-1.704,0.624-2.4l-0.048-0.048l-1.224,0.984l-0.264-0.912
			c1.44-1.104,2.76-2.328,3.648-3.841c-1.464,0-1.008-0.096-2.28,0.096l0.264-0.432c1.296-2.111,1.488-2.496,4.056-2.592
			c0.72-0.984,1.249-2.112,2.641-2.112c0.312,0,0.768,0.071,0.768,0.456c0,0.432-0.696,1.225-0.936,1.561L88.946,36.509z"/>
		<path fill="#0B1B2B" d="M90.337,43.493c1.176-0.936,5.544-4.775,6.865-4.775c0.576,0,1.152,0.6,1.152,1.152
			c0,0.455-0.96,1.512-1.248,1.848c-1.488,1.8-1.416,1.872-1.416,2.112c0,0.312,0.24,0.504,0.528,0.504
			c0.792,0,2.544-1.296,3.24-1.753l0.12,0.984c-1.104,0.84-4.008,3.193-5.329,3.193c-0.72,0-1.104-0.625-1.104-1.273
			c0-1.512,1.656-3.336,2.521-4.464l-0.048-0.048c-4.104,2.809-5.304,5.353-6.072,5.353c-0.84,0-0.96-1.872-0.96-2.425
			c0-1.656,0.624-2.808,1.464-4.176c2.832-4.681,7.609-8.881,8.425-8.881c0.384,0,1.032,0.168,1.032,0.648
			c0,1.632-7.633,9.553-9.169,11.064V43.493z"/>
		<path fill="#0B1B2B" d="M112.922,38.31c2.424,0.576,3.552,1.848,3.552,3.023c0,4.777-8.376,5.545-11.833,5.545
			c-0.936,0-3.864,0-3.864-1.393c0-0.504,0.84-1.775,1.224-2.136c0.288-0.239,1.704-0.696,2.064-0.696
			c0.12,0,0.192,0.024,0.192,0.168c0,0.24-0.24,0.36-0.408,0.457c-0.144,0.096-0.264,0.215-0.408,0.359v0.049
			c8.569,0.312,10.921-2.161,10.921-2.545c0-1.225-6.648-2.184-7.8-2.376c-1.2-0.192-2.448-0.576-2.448-2.017
			c0-0.792,0.384-2.544,0.768-3.191c0.744-1.225,5.088-3.505,10.345-3.505c1.008,0,2.016,0.12,3.024,0.336
			c0.552,0.12,0.624,0.312,0.624,0.792c0,1.776-0.6,2.184-2.016,2.736c-1.032,0.384-1.224,0.504-2.16,1.176
			c-0.168,0.096-0.408,0.24-0.6,0.24c-0.24,0-0.384-0.12-0.384-0.359c0-0.049,0.456-0.793,1.752-1.681l-0.048-0.048
			c-6.192,0.216-8.856,2.448-8.881,3C106.537,36.581,106.225,36.749,112.922,38.31z"/>
		<path fill="#0B1B2B" d="M125.737,40.134c0.504-0.457,2.856-2.736,3.457-2.736c0.192,0,0.456,0.072,0.552,1.32
			c0.048,0.576-0.6,1.128-0.984,1.464c-0.768,0.696-2.472,2.593-2.472,3.673c0,0.383,0.216,0.527,0.6,0.527
			c0.912,0,2.976-1.68,3.696-2.256l0.144,1.031c-1.224,1.177-3.769,3.938-5.544,3.938c-0.888,0-1.416-0.744-1.416-1.585
			c0-0.72,0.264-1.392,0.504-2.017l-0.048-0.047c-0.937,0.815-2.544,2.976-3.865,2.976c-1.176,0-1.824-1.344-1.824-2.376
			c0-2.328,1.8-4.729,3.336-5.736c0.336-0.217,0.648-0.264,1.056-0.264c0.336,0,1.56-0.217,1.464,0.504
			c-0.048,0.384-0.696,1.056-0.96,1.271c-0.744,0.84-0.888,1.057-1.824,1.729c-0.744,0.527-1.32,1.057-1.32,2.064
			c0,0.119,0.024,0.359,0.192,0.359c0.432,0,1.752-0.695,2.88-1.704L125.737,40.134z"/>
		<path fill="#0B1B2B" d="M133.489,41.981c-0.432,1.512,0.144,2.76,1.056,2.641c0.768-0.12,1.2-0.768,1.608-1.248
			c-0.192-0.313-0.336-0.553-0.336-0.937c0-1.392,1.92-3.744,3.336-3.744c0.576,0,0.72,0.601,0.72,1.056
			c0,1.009-0.744,2.113-1.152,3c0.984,0.193,1.776-0.336,2.544-0.887l0.24,0.791c-1.08,1.129-2.304,1.513-3.84,1.537
			c-1.032,1.08-2.712,2.543-4.296,2.543c-1.561,0-1.776-2.328-1.776-3.479c0-3.024,1.416-5.593,3.313-7.849
			c1.944-2.328,5.712-5.257,6.72-5.257c0.48,0,0.696,0.433,0.696,0.888c0,2.185-3.552,5.785-5.088,7.273L133.489,41.981z
			 M134.353,39.438l0.048,0.048c5.017-4.992,5.544-6.36,5.953-7.225l-0.048-0.048C137.929,34.229,135.769,36.653,134.353,39.438z"/>
	</g>
	<g>
		<g>
			<path fill="#0B1B2B" d="M12.597,15c-1.381,0-2.5-1.119-2.5-2.5v-10c0-1.381,1.119-2.5,2.5-2.5s2.5,1.119,2.5,2.5v10
				C15.097,13.881,13.978,15,12.597,15z"/>
		</g>
		<g>
			<path fill="#0B1B2B" d="M41.598,15c-1.381,0-2.5-1.119-2.5-2.5v-10c0-1.381,1.119-2.5,2.5-2.5s2.5,1.119,2.5,2.5v10
				C44.098,13.881,42.979,15,41.598,15z"/>
		</g>
	</g>
	<rect x="2.098" y="19.017" fill="#0B1B2B" width="50" height="4"/>
</g>
<g>
	
		<text transform="matrix(1 0 0 1 33.1846 -315.7817)" fill="#231F20" font-family="'MuseumClassicMedium-KSCpc-EUC-H'" font-size="24">M</text>
	
		<text transform="matrix(1 0 0 1 71.5786 -317.7817)" fill="#231F20" font-family="'MuseumClassicMedium-KSCpc-EUC-H'" font-size="24">onthSub</text>
	<g>
		<g>
			<g>
				
					<line fill="none" stroke="#231F20" stroke-width="5" stroke-linecap="round" stroke-miterlimit="10" x1="28.512" y1="-362.8" x2="28.512" y2="-352.8"/>
			</g>
			<g>
				
					<line fill="none" stroke="#231F20" stroke-width="5" stroke-linecap="round" stroke-miterlimit="10" x1="57.513" y1="-362.8" x2="57.513" y2="-352.8"/>
			</g>
		</g>
		
			<line fill="none" stroke="#231F20" stroke-width="4" stroke-miterlimit="10" x1="18.013" y1="-344.283" x2="68.013" y2="-344.283"/>
		<path fill="none" stroke="#231F20" stroke-width="4" stroke-miterlimit="10" d="M68.013-311.288c0,1.926-1.563,3.488-3.488,3.488
			H21.5c-1.926,0-3.487-1.562-3.487-3.488v-43.024c0-1.926,1.562-3.488,3.487-3.488h43.024c1.926,0,3.488,1.562,3.488,3.488
			V-311.288z"/>
	</g>
</g>
<text transform="matrix(1 0 0 1 32.2188 -234.4316)" fill="#231F20" font-family="'WandohopeB'" font-size="28">M</text>
<text transform="matrix(1 0 0 1 74.585 -237.0977)" fill="#231F20" font-family="'WandohopeR'" font-size="24">onthSub</text>
<g>
	<g>
		<g>
			
				<line fill="none" stroke="#231F20" stroke-width="5" stroke-linecap="round" stroke-miterlimit="10" x1="29.478" y1="-279.449" x2="29.478" y2="-269.449"/>
		</g>
		<g>
			
				<line fill="none" stroke="#231F20" stroke-width="5" stroke-linecap="round" stroke-miterlimit="10" x1="58.479" y1="-279.449" x2="58.479" y2="-269.449"/>
		</g>
	</g>
	
		<line fill="none" stroke="#231F20" stroke-width="4" stroke-miterlimit="10" x1="18.979" y1="-260.933" x2="68.979" y2="-260.933"/>
	<path fill="none" stroke="#231F20" stroke-width="4" stroke-miterlimit="10" d="M68.979-227.937c0,1.926-1.563,3.487-3.488,3.487
		H22.466c-1.926,0-3.487-1.562-3.487-3.487v-43.024c0-1.926,1.562-3.488,3.487-3.488H65.49c1.926,0,3.488,1.563,3.488,3.488
		V-227.937z"/>
</g>
</svg>
